<svg id="cc_sprite" xmlns="http://www.w3.org/2000/svg" viewBox="456.5 3.3 691 101.8"><style>.st0{fill:url(#SVGID_1_);} .st1{opacity:0.5;fill:none;stroke:#666766;stroke-width:3.273;stroke-miterlimit:10;enable-background:new ;} .st2{fill:#293687;} .st3{fill:#F7981D;} .st4{fill:url(#SVGID_2_);} .st5{fill:#931B1D;} .st6{fill:#F16622;} .st7{fill:#F7971D;} .st8{fill:#CA2027;} .st9{fill:#22205F;} .st10{fill:#FFFFFF;} .st11{fill:#0D96D3;} .st12{opacity:0.5;fill:none;stroke:#666766;stroke-width:3.2756;stroke-miterlimit:10;enable-background:new ;} .st13{fill:none;} .st14{fill:#F9FCF8;} .st15{fill:url(#SVGID_3_);} .st16{fill:url(#SVGID_4_);} .st17{fill:#0A1620;} .st18{fill:url(#SVGID_5_);}</style><linearGradient id="SVGID_1_" gradientUnits="userSpaceOnUse" x1="469.553" y1="-2.971" x2="606.817" y2="112.207" gradientTransform="matrix(1 0 0 -1 0 108.6)"><stop offset="0" stop-color="#FFF"/><stop offset="1" stop-color="#C8CACB"/></linearGradient><path class="st0" d="M466 4.9h144.4c4.2 0 7.7 3.5 7.7 7.7v82.8c0 4.2-3.5 7.7-7.7 7.7H466c-4.2 0-7.7-3.5-7.7-7.7V12.6c-.1-4.2 3.4-7.7 7.7-7.7z"/><path class="st1" d="M466 4.9h144.4c4.2 0 7.7 3.5 7.7 7.7v82.8c0 4.2-3.5 7.7-7.7 7.7H466c-4.2 0-7.7-3.5-7.7-7.7V12.6c-.1-4.2 3.4-7.7 7.7-7.7z"/><path class="st2" d="M517.5 69.1l5.6-33.2h9.1l-5.6 33.2zM559 36.8c-1.8-.7-4.6-1.4-8.2-1.4-9 0-15.3 4.5-15.4 11-.1 4.8 4.5 7.4 8 9s4.7 2.7 4.7 4.1c0 2.2-2.8 3.2-5.4 3.2-3.6 0-5.6-.5-8.6-1.7l-1.2-.5-1.3 7.4c2.1.9 6.1 1.7 10.1 1.8 9.6 0 15.8-4.4 15.8-11.3 0-3.8-2.4-6.6-7.6-9-3.2-1.5-5.1-2.6-5.1-4.1 0-1.4 1.6-2.9 5.2-2.9 3 0 5.1.6 6.8 1.3l.8.4 1.4-7.3zm15.5-.9c-2.2 0-3.8.7-4.7 2.8l-13.5 30.4h9.6l1.9-5.1h11.5l1.1 5.1h8.6l-7.5-33.2h-7zm-4.2 21.5c.8-1.9 3.6-9.3 3.6-9.3-.1.1.7-1.9 1.2-3.2l.6 2.9s1.7 7.9 2.1 9.6h-7.5zm-69.4 1.2l-.8-4.5c-1.7-5.3-6.8-11-12.6-13.9l8 28.9h9.6l14.5-33.2H510l-9.1 22.7z"/><path class="st3" d="M477.6 35.9v.5c11.4 2.7 19.3 9.7 22.5 17.7l-3.3-15.4c-.6-2.1-2.2-2.8-4.2-2.8h-15z"/><linearGradient id="SVGID_2_" gradientUnits="userSpaceOnUse" x1="635.356" y1="100.063" x2="792.827" y2="9.147" gradientTransform="matrix(1 0 0 -1 0 108.6)"><stop offset="0" stop-color="#9FC8E2"/><stop offset="1" stop-color="#00578E"/></linearGradient><path class="st4" d="M641.9 4.9h144.4c4.2 0 7.7 3.5 7.7 7.7v82.8c0 4.2-3.5 7.7-7.7 7.7H641.9c-4.2 0-7.7-3.5-7.7-7.7V12.6c0-4.2 3.4-7.7 7.7-7.7z"/><path class="st1" d="M641.9 4.9h144.4c4.2 0 7.7 3.5 7.7 7.7v82.8c0 4.2-3.5 7.7-7.7 7.7H641.9c-4.2 0-7.7-3.5-7.7-7.7V12.6c0-4.2 3.4-7.7 7.7-7.7z"/><path class="st5" d="M688.9 16.5c-20.4.1-36.8 16.7-36.8 37.2s16.6 37.2 37.1 37.2c9.6 0 18.4-3.7 24.9-9.7 1.3-1.2 2.6-2.6 3.8-4h-7.6c-1-1.2-1.9-2.5-2.8-3.8h13.1c.8-1.3 1.5-2.6 2.2-4h-17.4c-.6-1.3-1.1-2.6-1.5-3.9h20.5c1.2-3.7 1.9-7.7 1.9-11.8 0-2.7-.3-5.4-.9-8h-22.7c.3-1.3.6-2.6 1.1-3.9h20.5c-.5-1.4-1-2.7-1.6-4h-17.4c.6-1.3 1.3-2.6 2.1-3.9h13.1c-.9-1.4-1.8-2.7-2.9-4h-7.3c1.1-1.3 2.4-2.6 3.7-3.8-6.6-6-15.3-9.7-25.1-9.6.2 0 .1 0 0 0z"/><path class="st6" d="M776 53.7c0 20.5-16.6 37.2-37.1 37.2s-37.1-16.6-37.1-37.1 16.6-37.2 37.1-37.2c20.5-.1 37.1 16.5 37.1 37.1z"/><path class="st7" d="M776 54.1c0 20.5-16.6 37.2-37.1 37.2s-37.1-16.6-37.1-37.1S718.4 17 738.9 17c20.5-.1 37.1 16.5 37.1 37.1z"/><path class="st8" d="M688.9 16.9c-20.4.1-36.8 16.7-36.8 37.2s16.6 37.2 37.1 37.2c9.6 0 18.4-3.7 24.9-9.7 1.3-1.2 2.6-2.6 3.8-4h-7.6c-1-1.2-1.9-2.5-2.8-3.8h13.1c.8-1.3 1.5-2.6 2.2-4h-17.4c-.6-1.3-1.1-2.6-1.5-3.9h20.5c1.2-3.7 1.9-7.7 1.9-11.8 0-2.7-.3-5.4-.9-8h-22.7c.3-1.3.6-2.6 1.1-3.9h20.5c-.5-1.4-1-2.7-1.6-4h-17.4c.6-1.3 1.3-2.6 2.1-3.9h13.1c-.9-1.4-1.8-2.7-2.9-4h-7.3c1.1-1.3 2.4-2.6 3.7-3.8-6.6-6-15.3-9.7-25-9.7.1.1 0 .1-.1.1z"/><path class="st9" d="M701.456 64.694l.5-3.4c-.3 0-.7.1-1 .1-1.4 0-1.5-.7-1.4-1.3l1.4-6.8h2.1l.4-3.8h-2l.4-2.3h-4.1c-.1.1-2.3 13-2.3 14.6 0 2.3 1.3 3.4 3.1 3.3 1.4.1 2.5-.3 2.9-.4zm1.3-6.4c0 5.6 3.7 6.9 6.8 6.9 2.9 0 4.4-.7 4.4-.7l.7-3.8s-2.4 1-4.4 1c-4.2 0-3.5-3.2-3.5-3.2h8.1s.5-2.6.5-3.6c0-2.6-1.4-5.8-5.8-5.8-3.9.1-6.8 4.4-6.8 9.2zm6.9-5.6c2.2 0 1.8 2.5 1.8 2.7h-4.4c0-.2.5-2.7 2.6-2.7zm25 12l.7-4.3s-1.9 1-3.3 1c-2.8 0-3.9-2.1-3.9-4.4 0-4.7 2.4-7.2 5.1-7.2 2 0 3.6 1.1 3.6 1.1l.6-4.2s-1.9-1.4-4-1.4c-6.2 0-9.7 4.3-9.7 11.7 0 4.9 2.6 8.3 7.3 8.3 1.5 0 3.6-.6 3.6-.6zm-54.9-15.4c-2.7 0-4.8.9-4.8.9l-.6 3.4s1.7-.7 4.3-.7c1.5 0 2.5.2 2.5 1.4 0 .7-.1 1-.1 1s-1.2-.1-1.7-.1c-3.9 0-7 1.5-7 5.9 0 3.5 2.4 4.3 3.8 4.3 2.8 0 3.9-1.8 4-1.8v1.5h3.5l1.6-10.9c-.1-4.8-4.1-4.9-5.5-4.9zm.6 8.8c.1.7-.2 3.8-2.5 3.8-1.2 0-1.5-.9-1.5-1.5 0-1.1.6-2.4 3.5-2.4.6 0 .4.1.5.1zm8.5 7.1c.9 0 6 .2 6-5 0-4.9-4.7-3.9-4.7-5.9 0-1 .8-1.3 2.2-1.3.6 0 2.7.2 2.7.2l.5-3.5s-1.4-.3-3.6-.3c-2.9 0-5.9 1.2-5.9 5.2 0 4.5 4.9 4.1 4.9 6 0 1.3-1.4 1.4-2.4 1.4-1.8 0-3.5-.6-3.5-.6l-.5 3.5c0-.2 1 .3 4.3.3zm78.4-19.1l-.7 5.3s-1.5-2.1-3.8-2.1c-4.4 0-6.6 4.4-6.6 9.4 0 3.2 1.6 6.4 4.9 6.4 2.4 0 3.7-1.7 3.7-1.7l-.2 1.4h3.8l3-18.8-4.1.1zm-1.7 10.4c0 2.1-1 4.9-3.2 4.9-1.4 0-2.1-1.2-2.1-3.1 0-3.1 1.4-5.1 3.1-5.1 1.4 0 2.2.9 2.2 3.3zm-107.2 8.4l2.4-14.2.4 14.2h2.7l5.1-14.2-2.2 14.2h4l3.1-18.8h-6.4l-3.8 11.5-.1-11.5h-5.9l-3.2 18.8h3.9z"/><path class="st9" d="M719.256 64.994c1.1-6.5 1.6-11.7 4.9-10.6.5-2.5 1.6-4.7 2.2-5.8 0 0-.2-.2-1.2-.2-1.8 0-4.1 3.6-4.1 3.6l.4-2.2h-3.7l-2.5 15.3 4-.1zm23.7-15.7c-2.7 0-4.8.9-4.8.9l-.6 3.4s1.7-.7 4.3-.7c1.5 0 2.5.2 2.5 1.4 0 .7-.1 1-.1 1s-1.2-.1-1.7-.1c-3.9 0-7 1.5-7 5.9 0 3.5 2.4 4.3 3.8 4.3 2.8 0 3.9-1.8 4-1.8v1.5h3.5l1.6-10.9c-.1-4.8-4.1-4.9-5.5-4.9zm.6 8.8c.1.7-.2 3.8-2.5 3.8-1.2 0-1.5-.9-1.5-1.5 0-1.1.6-2.4 3.5-2.4.5 0 .4.1.5.1zm8.8 6.9c.6-4.8 1.8-11.6 4.9-10.6.5-2.5 0-2.5-1-2.5-1.8 0-2.2.1-2.2.1l.4-2.2h-3.7l-2.5 15.2h4.1z"/><path class="st10" d="M702.5 63.5l.5-3.4c-.3 0-.7.1-1 .1-1.4 0-1.5-.7-1.4-1.3l1.1-6.9h2.1l.5-3.7h-2l.4-2.3h-3.9c-.1.1-2.3 13-2.3 14.6 0 2.3 1.3 3.4 3.1 3.3 1.4.1 2.5-.3 2.9-.4zm1.3-6.4c0 5.6 3.7 6.9 6.8 6.9 2.9 0 4.2-.6 4.2-.6l.7-3.8s-2.2 1-4.2 1c-4.2 0-3.5-3.2-3.5-3.2h8s.5-2.6.5-3.6c0-2.6-1.3-5.8-5.6-5.8-4 0-6.9 4.3-6.9 9.1zm6.9-5.6c2.2 0 1.8 2.5 1.8 2.7h-4.4c0-.2.4-2.7 2.6-2.7zm25 12l.7-4.3s-1.9 1-3.3 1c-2.8 0-3.9-2.1-3.9-4.4 0-4.7 2.4-7.2 5.1-7.2 2 0 3.6 1.1 3.6 1.1l.6-4.2s-2.4-1-4.4-1c-4.6 0-9 4-9 11.4 0 4.9 2.4 8.2 7.1 8.2 1.4 0 3.5-.6 3.5-.6zm-54.9-15.4c-2.7 0-4.8.9-4.8.9l-.6 3.4s1.7-.7 4.3-.7c1.5 0 2.5.2 2.5 1.4 0 .7-.1 1-.1 1s-1.2-.1-1.7-.1c-3.4 0-7 1.5-7 5.9 0 3.5 2.4 4.3 3.8 4.3 2.8 0 4-1.8 4-1.8l-.1 1.5h3.5l1.6-10.9c0-4.8-4-4.9-5.4-4.9zm.9 8.8c.1.7-.4 3.8-2.8 3.8-1.2 0-1.5-.9-1.5-1.5 0-1.1.6-2.4 3.5-2.4.6 0 .6.1.8.1zm8.2 7c.9 0 6 .2 6-5 0-4.9-4.7-3.9-4.7-5.9 0-1 .8-1.3 2.2-1.3.6 0 2.7.2 2.7.2l.5-3.5s-1.4-.3-3.6-.3c-2.9 0-5.9 1.2-5.9 5.2 0 4.5 4.9 4.1 4.9 6 0 1.3-1.4 1.4-2.4 1.4-1.8 0-3.5-.6-3.5-.6l-.5 3.5c0-.1 1 .3 4.3.3zm78.5-19l-.9 5.3s-1.5-2.1-3.8-2.1c-3.6 0-6.6 4.4-6.6 9.4 0 3.2 1.6 6.4 4.9 6.4 2.4 0 3.7-1.7 3.7-1.7l-.2 1.4h3.8l3-18.8-3.9.1zm-1.9 10.3c0 2.1-1 4.9-3.2 4.9-1.4 0-2.1-1.2-2.1-3.1 0-3.1 1.4-5.1 3.1-5.1 1.5.1 2.2 1 2.2 3.3zm-107.1 8.5l2.4-14.2.4 14.2h2.7l5.1-14.2-2.2 14.2h4l3.1-18.8h-6.2l-3.9 11.6-.2-11.6h-5.8l-3.2 18.8h3.8zm60.8.1c1.1-6.5 1.4-11.9 4.1-10.9.5-2.5.9-3.5 1.5-4.6 0 0-.2-.1-.8-.1-1.8 0-3.1 2.4-3.1 2.4l.4-2.2h-3.7l-2.5 15.3 4.1.1zm24.6-15.7c-2.7 0-4.8.9-4.8.9l-.6 3.4s1.7-.7 4.3-.7c1.5 0 2.5.2 2.5 1.4 0 .7-.1 1-.1 1s-1.2-.1-1.7-.1c-3.4 0-7 1.5-7 5.9 0 3.5 2.4 4.3 3.8 4.3 2.8 0 4-1.8 4-1.8l-.1 1.5h3.5l1.6-10.9c0-4.8-4-4.9-5.4-4.9zm.8 8.8c.1.7-.4 3.8-2.8 3.8-1.2 0-1.5-.9-1.5-1.5 0-1.1.6-2.4 3.5-2.4.7 0 .7.1.8.1zm7.8 6.9c1.1-6.5 1.4-11.9 4.1-10.9.5-2.5.9-3.5 1.5-4.6 0 0-.2-.1-.8-.1-1.8 0-3.1 2.4-3.1 2.4l.4-2.2h-3.7l-2.5 15.3 4.1.1z"/><path class="st11" d="M817.8 4.9h144.4c4.2 0 7.7 3.5 7.7 7.7v82.8c0 4.2-3.5 7.7-7.7 7.7H817.8c-4.2 0-7.7-3.5-7.7-7.7V12.6c0-4.2 3.4-7.7 7.7-7.7z"/><path class="st12" d="M817.8 4.9h144.4c4.2 0 7.7 3.5 7.7 7.7v82.8c0 4.2-3.5 7.7-7.7 7.7H817.8c-4.2 0-7.7-3.5-7.7-7.7V12.6c0-4.2 3.4-7.7 7.7-7.7z"/><path class="st13" d="M909.8 59.9v.7h15.4l4.7-7-4.5-6.9v.8h-15.6v.7h14.1v11.7z"/><path class="st14" d="M839 56.8h7.9l-3.9-9.1z"/><path class="st14" d="M945.8 53.5l11.6-18h-15.3l-4.4 6.8-4.4-6.8H884l-6.3 13.3-6.3-13.3h-14.1V57L848 35.5h-10.5l-16 37.1h13.7l2.9-6.8h9.4l2.9 6.8h19.7V62.3l3.8 7.7h7.7l3.8-7.7v10.3h47.3l5.1-7.9 5.1 7.9h15.4l-12.5-19.1zm-93.4 16.2l-2.9-6.8h-13.1l-2.9 6.8H826l13.5-31.3h6.8l13.5 31.3h-7.4zm43 0h-7V50l-8.5 17.1h-4.2L867.3 50v19.7h-7V38.4h9.5l8.1 17.2 8.1-17.2h9.4v31.3zm42.4-10.3l-6.6 10.3H900V38.4h22.6v6.2H907v6.5h14v6h-14v6.5h16v5.7l10.2-15.6-9.8-15.3h8.4l6 9.3 6-9.3h8.4l-9.8 15.1L953 69.7h-8.5l-6.7-10.3zm-28-11.2v-.7h15.6v-.7l4.4 6.9-4.6 7h-15.4v-.8h14V48.2h-14z"/><linearGradient id="SVGID_3_" gradientUnits="userSpaceOnUse" x1="997.268" y1="-2.989" x2="1134.532" y2="112.189" gradientTransform="matrix(1 0 0 -1 0 108.6)"><stop offset="0" stop-color="#FFF"/><stop offset="1" stop-color="#E6E7E8"/></linearGradient><path class="st15" d="M993.7 4.9h144.4c4.2 0 7.7 3.5 7.7 7.7v82.8c0 4.2-3.5 7.7-7.7 7.7H993.7c-4.2 0-7.7-3.5-7.7-7.7V12.6c0-4.2 3.5-7.7 7.7-7.7z"/><linearGradient id="SVGID_4_" gradientUnits="userSpaceOnUse" x1="199.685" y1="183.357" x2="238.023" y2="183.357" gradientTransform="matrix(.5453 0 0 -.5453 950.412 144.685)"><stop offset="0" stop-color="#F16622"/><stop offset="1" stop-color="#EB8023"/></linearGradient><circle class="st16" cx="1069.8" cy="44.7" r="10.5"/><path class="st17" d="M1013.5 49.7c-1.2 1.1-2.8 1.6-5.3 1.6h-1V38.2h1c2.5 0 4.1.4 5.3 1.6 1.4 1.2 2.2 3 2.2 4.9-.1 1.9-.9 3.8-2.2 5zm-4.6-14.9h-5.7v19.8h5.7c3 0 5.2-.7 7.1-2.3 2.3-1.9 3.6-4.7 3.6-7.6 0-5.8-4.4-9.9-10.7-9.9m12.5 19.9h3.9V34.8h-3.9v19.9m13.5-12.3c-2.3-.9-3-1.4-3-2.5 0-1.3 1.2-2.2 2.9-2.2 1.2 0 2.1.5 3.2 1.6l2-2.6c-1.7-1.5-3.7-2.2-5.9-2.2-3.5 0-6.2 2.4-6.2 5.7 0 2.7 1.3 4.1 4.9 5.4 1.5.5 2.3.9 2.7 1.1.8.5 1.2 1.2 1.2 2.1 0 1.6-1.3 2.8-3 2.8-1.9 0-3.4-.9-4.3-2.6l-2.5 2.4c1.8 2.6 4 3.8 6.9 3.8 4 0 6.9-2.7 6.9-6.5-.1-3.2-1.4-4.6-5.8-6.3m7 2.4c0 5.8 4.6 10.4 10.6 10.4 1.7 0 3.1-.3 4.9-1.2v-4.6c-1.6 1.5-2.9 2.2-4.7 2.2-3.9 0-6.7-2.8-6.7-6.8 0-3.8 2.9-6.8 6.5-6.8 1.9 0 3.3.7 4.9 2.2v-4.6c-1.7-.9-3.1-1.2-4.8-1.2-6 0-10.7 4.6-10.7 10.4m47 3.4l-5.3-13.4h-4.3l8.5 20.4h2.1l8.7-20.4h-4.3l-5.4 13.4m11.4 6.5h11.1v-3.4h-7.2V46h6.9v-3.4h-6.9v-4.4h7.2v-3.4h-11.1v19.9M1119 44h-1.1v-6h1.2c2.4 0 3.8 1 3.8 2.9-.1 2-1.4 3.1-3.9 3.1zm7.9-3.3c0-3.7-2.6-5.9-7.1-5.9h-5.8v19.8h3.9v-8h.5l5.4 8h4.8l-6.3-8.4c2.9-.5 4.6-2.5 4.6-5.5"/><path class="st10" d="M1031.6 73.4V62.3l7.6 8V63h1.6v11.1l-7.6-8v7.3h-1.6zm17.5-8.9h-4.2V67h4.1v1.5h-4.1V72h4.2v1.5h-5.8V63h5.8v1.5zm5 0v9h-1.6v-9h-2.4V63h6.4v1.5h-2.4zm4.9-1.5l2.7 7 2.8-7.5 2.7 7.5 2.9-7h1.7l-4.7 11.1-2.7-7.4-2.8 7.4-4.4-11.1h1.8zm13.2 5.2c0-1.5.5-2.7 1.6-3.8 1.1-1.1 2.4-1.6 3.9-1.6s2.8.5 3.8 1.6c1.1 1.1 1.6 2.3 1.6 3.8s-.5 2.8-1.6 3.8c-1.1 1.1-2.4 1.6-3.9 1.6-1.3 0-2.6-.5-3.6-1.4-1.2-1-1.8-2.4-1.8-4zm1.6 0c0 1.2.4 2.1 1.2 2.8.8.7 1.7 1.1 2.7 1.1 1.1 0 2-.4 2.8-1.1.8-.8 1.1-1.7 1.1-2.8 0-1.1-.4-2-1.1-2.8s-1.7-1.1-2.7-1.1c-1.1 0-2 .4-2.8 1.1-.8.8-1.2 1.7-1.2 2.8zm14.8.8l3.2 4.5h-1.9l-3-4.3h-.3v4.3h-1.6V63h1.8c1.4 0 2.4.3 3 .8.7.6 1 1.3 1 2.3 0 .7-.2 1.4-.6 1.9-.4.5-.9.8-1.6 1zm-1.9-1.2h.5c1.5 0 2.2-.6 2.2-1.7s-.7-1.6-2.2-1.6h-.6l.1 3.3zm8.3-.6l4.1-4.2h2.1l-4.7 4.7 4.8 5.7h-2.1l-3.8-4.7-.3.3v4.3h-1.6V63h1.6l-.1 4.2z"/><path d="M1031.6 73.1V62l7.6 8v-7.3h1.6v11.1l-7.6-8v7.3h-1.6zm17.5-9h-4.2v2.5h4.1v1.5h-4.1v3.5h4.2v1.5h-5.8V62.7h5.8v1.4zm5 0v9h-1.6v-9h-2.4v-1.5h6.4v1.5h-2.4zm4.9-1.4l2.7 7 2.8-7.5 2.7 7.5 2.9-7h1.7l-4.7 11.1-2.7-7.4-2.8 7.4-4.4-11.1h1.8zm13.2 5.1c0-1.5.5-2.7 1.6-3.8 1.1-1.1 2.4-1.6 3.9-1.6s2.8.5 3.8 1.6c1.1 1.1 1.6 2.3 1.6 3.8s-.5 2.8-1.6 3.8c-1.1 1.1-2.4 1.6-3.9 1.6-1.3 0-2.6-.5-3.6-1.4-1.2-.9-1.8-2.3-1.8-4zm1.6.1c0 1.2.4 2.1 1.2 2.8.8.7 1.7 1.1 2.7 1.1 1.1 0 2-.4 2.8-1.1.8-.8 1.1-1.7 1.1-2.8 0-1.1-.4-2-1.1-2.8s-1.7-1.1-2.7-1.1c-1.1 0-2 .4-2.8 1.1-.8.7-1.2 1.7-1.2 2.8zm14.8.8l3.2 4.5h-1.9l-3-4.3h-.3v4.3h-1.6V62.7h1.8c1.4 0 2.4.3 3 .8.7.6 1 1.3 1 2.3 0 .7-.2 1.4-.6 1.9-.4.5-.9.8-1.6 1zm-1.9-1.2h.5c1.5 0 2.2-.6 2.2-1.7s-.7-1.6-2.2-1.6h-.6l.1 3.3zm8.3-.7l4.1-4.2h2.1l-4.7 4.7 4.8 5.7h-2.1l-3.8-4.7-.3.3v4.3h-1.6V62.7h1.6l-.1 4.1z"/><path class="st1" d="M993.7 4.9h144.4c4.2 0 7.7 3.5 7.7 7.7v82.8c0 4.2-3.5 7.7-7.7 7.7H993.7c-4.2 0-7.7-3.5-7.7-7.7V12.6c0-4.2 3.5-7.7 7.7-7.7z"/><path class="st10" d="M1144.2 96.1v-34c-8.1 6-46 32.7-78.8 39.5h73.3c3 0 5.5-2.5 5.5-5.5z"/><linearGradient id="SVGID_5_" gradientUnits="userSpaceOnUse" x1="1051.312" y1="26.75" x2="1145.77" y2="26.75" gradientTransform="matrix(1 0 0 -1 0 108.6)"><stop offset="0" stop-color="#F16622"/><stop offset="1" stop-color="#EB8023"/></linearGradient><path class="st18" d="M1144.2 96.1v-34c-8.1 6-46 32.7-78.8 39.5h73.3c3 0 5.5-2.5 5.5-5.5z"/></svg>