<svg xmlns="http://www.w3.org/2000/svg" viewBox="1928 3.3 163.2 101.5"><style>.st0{fill:url(#SVGID_1_);} .st1{fill:url(#SVGID_2_);} .st2{fill:#0A1620;} .st3{fill:#FFFFFF;} .st4{opacity:0.5;fill:none;stroke:#666766;stroke-width:3.273;stroke-miterlimit:10;enable-background:new ;} .st5{fill:url(#SVGID_3_);} .st6{fill:#0D96D3;} .st7{opacity:0.5;fill:none;stroke:#666766;stroke-width:3.2756;stroke-miterlimit:10;enable-background:new ;} .st8{fill:none;} .st9{fill:#F9FCF8;} .st10{fill:url(#SVGID_4_);} .st11{fill:#931B1D;} .st12{fill:#F16622;} .st13{fill:#F7971D;} .st14{fill:#CA2027;} .st15{fill:#22205F;} .st16{fill:url(#SVGID_5_);} .st17{fill:#293687;} .st18{fill:#F7981D;} .st19{fill:url(#SVGID_6_);} .st20{opacity:0.5;fill:none;stroke:#F2A61D;stroke-width:3.273;stroke-miterlimit:10;enable-background:new ;} .st21{fill:#1C3664;} .st22{fill:#336698;} .st23{fill:url(#SVGID_7_);}</style><g id="paypal"><linearGradient id="SVGID_1_" gradientUnits="userSpaceOnUse" x1="1929.8" y1="54.6" x2="2089.6" y2="54.6" gradientTransform="matrix(1 0 0 -1 0 108.6)"><stop offset="0" stop-color="#FFF"/><stop offset=".002" stop-color="#FFFFFE"/><stop offset=".055" stop-color="#FDF7E7"/><stop offset=".115" stop-color="#FBF1D5"/><stop offset=".188" stop-color="#FAEDC8"/><stop offset=".285" stop-color="#F9EBC1"/><stop offset=".502" stop-color="#F9EABF"/><stop offset=".706" stop-color="#F9EBC1"/><stop offset=".799" stop-color="#FAEDC8"/><stop offset=".87" stop-color="#FBF1D5"/><stop offset=".928" stop-color="#FDF7E7"/><stop offset=".98" stop-color="#FFFFFE"/><stop offset=".981" stop-color="#FFF"/></linearGradient><path class="st0" d="M1937.5 4.9h144.4c4.2 0 7.7 3.5 7.7 7.7v82.8c0 4.2-3.5 7.7-7.7 7.7h-144.4c-4.2 0-7.7-3.5-7.7-7.7V12.6c0-4.2 3.4-7.7 7.7-7.7z"/><path class="st20" d="M1937.5 4.9h144.4c4.2 0 7.7 3.5 7.7 7.7v82.8c0 4.2-3.5 7.7-7.7 7.7h-144.4c-4.2 0-7.7-3.5-7.7-7.7V12.6c0-4.2 3.4-7.7 7.7-7.7z"/><path class="st21" d="M1965.6 49.6c-1.1.8-2.7 1.2-4.7 1.2h-2.4l1.9-7.4h2.6c1.4 0 2.5.3 3.2.8.7.5 1.1 1.2 1.1 2.1 0 1.4-.6 2.5-1.7 3.3m8-7.1c-.5-.8-1.2-1.5-2.1-2.1-.9-.5-2-1-3.2-1.3-1.3-.2-2.8-.3-4.5-.3h-9.3l-5.6 24.5h6.7l1.7-7.9h2.5c4.6 0 8.1-.9 10.7-2.7 2.5-1.8 3.8-4.1 3.8-7 0-1.3-.2-2.3-.7-3.2zm10.8 15.8c-.6.4-1.3.8-1.9 1-.7.3-1.3.4-2 .4-.9 0-1.6-.1-2.1-.4-.5-.3-.7-.7-.7-1.3 0-.7.2-1.3.6-1.7s.9-.8 1.6-1 1.5-.4 2.5-.5 2-.2 3.1-.3l-1.1 3.8m-1 4.7h6.1l3-12.4c.1-.3.1-.6.2-.9 0-.3.1-.6.1-.8 0-1.6-.7-2.7-2.1-3.5-1.4-.7-3.6-1.1-6.7-1.1-1.5 0-3 .1-4.5.3s-2.6.4-3.4.6l-.9 4.4s2.1-.5 3.3-.8c1.2-.3 2.4-.5 3.4-.5 1.5 0 2.6.1 3.4.5.8.3 1.1.8 1.1 1.6 0 .2 0 .3-.1.5 0 .2-.1.3-.1.3-2.1.1-4.1.3-6 .6-1.8.2-3.4.7-4.8 1.2-1.4.6-2.5 1.4-3.2 2.4-.7 1-1.1 2.2-1.1 3.7 0 1.4.5 2.5 1.5 3.3 1 .9 2.3 1.3 3.9 1.3 1 0 1.8-.1 2.3-.2.6-.1 1.2-.3 1.8-.6.5-.2 1-.5 1.5-.8.6-.3 1-.6 1.4-.9l-.1 1.8zm8.2 7l5.2-7.1-3.3-17.9h6.4l1.7 12 7.5-12h6.4l-16.6 25"/><path class="st22" d="M2029.8 49.6c-1.1.8-2.7 1.2-4.7 1.2h-2.4l1.8-7.4h2.9c1.4 0 2.4.3 3.1.8s1.1 1.2 1.1 2.1c-.1 1.4-.7 2.5-1.8 3.3m8.1-7.1c-.5-.8-1.2-1.5-2.1-2.1-.9-.5-2-.9-3.3-1.1-1.3-.2-2.6-.4-4.3-.4h-9.2l-6.1 24.4h6.7l1.9-8h3.2c4.6 0 7.5-.8 10-2.5 2.5-1.8 3.8-4.1 3.8-7 .1-1.4-.2-2.4-.6-3.3zm11.8 15.8c-.6.4-1.3.8-2 1-.7.3-1.3.4-1.9.4-.9 0-1.6-.1-2.1-.4-.5-.3-.7-.7-.7-1.3 0-.7.2-1.3.6-1.7.4-.4.9-.8 1.6-1 .7-.2 1.5-.4 2.5-.5s2-.2 3.1-.3l-1.1 3.8m-1.2 4.7h6.1l3.1-12.4c.1-.3.1-.6.2-.9 0-.3.1-.6.1-.8 0-1.6-.7-2.7-2.1-3.5-1.4-.7-3.6-1.1-6.7-1.1-1.5 0-3 .1-4.5.3s-2.6.4-3.4.6l-.9 4.4h.6c.6-.2 1.5-.5 2.8-.8 1.2-.3 2.4-.5 3.4-.5 1.5 0 2.6.1 3.4.5.8.3 1.1.8 1.1 1.6 0 .2 0 .3-.1.5 0 .2-.1.3-.1.3-2.2.1-4.1.3-6 .6-1.8.2-3.4.7-4.8 1.2-1.4.6-2.5 1.4-3.2 2.4-.7 1-1.1 2.2-1.1 3.7 0 1.4.5 2.5 1.5 3.3 1 .9 2.3 1.3 3.9 1.3 1 0 1.8-.1 2.4-.2.6-.1 1.2-.3 1.8-.6.5-.2 1-.5 1.5-.8.6-.3 1-.6 1.4-.9l-.4 1.8zm15.9.4h-6.4l6.4-25.3h6z"/></g></svg>